<?xml version="1.0" encoding="utf-8"?>
<svg viewBox="200 50 400 400" xmlns="http://www.w3.org/2000/svg">
  <rect x="200" y="50" width="400" height="400" style="stroke: rgb(0, 0, 0); stroke-width: 0px; fill: rgb(0, 234, 255);"/>
  <g transform="matrix(1, 0, 0, 1, -138.660004, 48.139999)">
    <path class="st1" d="M 486.708 302.512 C 483.908 302.512 481.718 300.934 481.718 298.906 L 481.718 152.475 C 481.718 150.457 483.908 148.869 486.708 148.869 C 489.508 148.869 491.688 150.447 491.688 152.475 L 491.688 298.906 C 491.698 300.934 489.508 302.512 486.708 302.512 Z" style="fill: rgb(255, 255, 255);"/>
    <path class="st1" d="M 584.7 301.666 C 582.38 301.666 580.49 300.396 580.49 298.836 L 580.49 152.236 C 580.49 150.676 582.37 149.406 584.7 149.406 C 587.02 149.406 588.91 150.676 588.91 152.236 L 588.91 298.836 C 588.91 300.396 587.03 301.666 584.7 301.666 Z" style="fill: rgb(255, 255, 255);"/>
    <path class="st1" d="M 486.106 157.44 C 483.746 157.44 481.816 155.52 481.816 153.15 C 481.816 150.79 483.736 148.86 486.106 148.86 L 543.196 148.86 C 545.556 148.86 547.486 150.78 547.486 153.15 C 547.486 155.51 545.566 157.44 543.196 157.44 L 486.106 157.44 Z" style="fill: rgb(255, 255, 255);"/>
    <path class="st1" d="M 543.196 156.66 L 486.106 156.66 C 484.166 156.66 482.596 155.09 482.596 153.15 C 482.596 151.21 484.166 149.64 486.106 149.64 L 543.196 149.64 C 545.136 149.64 546.706 151.21 546.706 153.15 C 546.706 155.09 545.136 156.66 543.196 156.66 Z" style="fill: rgb(255, 255, 255);"/>
    <path class="st1" d="M 443.18 304.02 C 440.69 304.02 438.66 301.99 438.66 299.5 L 438.66 233.16 C 438.66 230.67 440.69 228.64 443.18 228.64 L 542.02 228.64 C 544.51 228.64 546.54 230.67 546.54 233.16 C 546.54 235.65 544.51 237.68 542.02 237.68 L 447.7 237.68 L 447.7 294.98 L 596.1 294.98 L 596.1 304.02 L 443.18 304.02 Z" style="fill: rgb(255, 255, 255);"/>
    <path class="st1" d="M 595.32 295.75 L 446.92 295.75 L 446.92 236.89 L 542.02 236.89 C 544.09 236.89 545.76 235.22 545.76 233.15 C 545.76 231.08 544.09 229.41 542.02 229.41 L 443.18 229.41 C 441.11 229.41 439.44 231.08 439.44 233.15 L 439.44 299.49 C 439.44 301.56 441.11 303.23 443.18 303.23 L 595.33 303.23 L 595.33 295.75 L 595.32 295.75 Z" style="fill: rgb(255, 255, 255);"/>
    <path class="st1" d="M 607.02 304.02 L 607.02 294.98 L 628.3 294.98 L 628.3 110.9 L 447.7 110.9 L 447.7 188.14 C 447.7 190.63 445.67 192.66 443.18 192.66 C 440.69 192.66 438.66 190.63 438.66 188.14 L 438.66 106.38 C 438.66 103.89 440.69 101.86 443.18 101.86 L 632.82 101.86 C 635.31 101.86 637.34 103.89 637.34 106.38 L 637.34 299.5 C 637.34 301.99 635.31 304.02 632.82 304.02 L 607.02 304.02 Z" style="fill: rgb(255, 255, 255);"/>
    <path class="st1" d="M 632.82 102.64 L 443.18 102.64 C 441.11 102.64 439.44 104.31 439.44 106.38 L 439.44 188.14 C 439.44 190.21 441.11 191.88 443.18 191.88 C 445.25 191.88 446.92 190.21 446.92 188.14 L 446.92 110.12 L 629.08 110.12 L 629.08 295.75 L 607.8 295.75 L 607.8 303.23 L 632.82 303.23 C 634.89 303.23 636.56 301.56 636.56 299.49 L 636.56 106.38 C 636.56 104.32 634.89 102.64 632.82 102.64 Z" style="fill: rgb(255, 255, 255);"/>
    <path class="st1" d="M 540.535 157.44 C 538.175 157.44 536.245 155.52 536.245 153.15 C 536.245 150.79 538.165 148.86 540.535 148.86 L 597.625 148.86 C 599.985 148.86 601.915 150.78 601.915 153.15 C 601.915 155.51 599.995 157.44 597.625 157.44 L 540.535 157.44 Z" style="fill: rgb(255, 255, 255);"/>
    <path class="st1" d="M 597.625 156.66 L 540.535 156.66 C 538.595 156.66 537.025 155.09 537.025 153.15 C 537.025 151.21 538.595 149.64 540.535 149.64 L 597.625 149.64 C 599.565 149.64 601.135 151.21 601.135 153.15 C 601.135 155.09 599.565 156.66 597.625 156.66 Z" style="fill: rgb(255, 255, 255);"/>
    <path class="st1" d="M 574.95 157.44 C 572.59 157.44 570.66 155.52 570.66 153.15 C 570.66 150.79 572.58 148.86 574.95 148.86 L 632.04 148.86 C 634.4 148.86 636.33 150.78 636.33 153.15 C 636.33 155.51 634.41 157.44 632.04 157.44 L 574.95 157.44 Z" style="fill: rgb(255, 255, 255);"/>
    <path class="st1" d="M 632.04 156.66 L 574.95 156.66 C 573.01 156.66 571.44 155.09 571.44 153.15 C 571.44 151.21 573.01 149.64 574.95 149.64 L 632.04 149.64 C 633.98 149.64 635.55 151.21 635.55 153.15 C 635.55 155.09 633.98 156.66 632.04 156.66 Z" style="fill: rgb(255, 255, 255);"/>
  </g>
</svg>